<svg width="35" height="40" viewBox="0 0 35 40" fill="none" xmlns="http://www.w3.org/2000/svg">
<path d="M0.503906 19.6189C0.503906 16.2607 0.503906 12.9025 0.503906 9.54433C0.503906 9.39336 0.558444 9.31235 0.685698 9.24239C5.7686 6.44022 10.8515 3.63436 15.9344 0.83219C16.3671 0.592845 16.8034 0.353501 17.2361 0.110474C17.4942 -0.0331327 17.7523 -0.0368149 18.0068 0.10311C23.5006 3.13726 28.9944 6.17141 34.4917 9.20189C34.6626 9.29762 34.7244 9.41545 34.7244 9.60693C34.7244 16.2902 34.7244 22.9771 34.7244 29.6603C34.7244 29.8665 34.6372 29.9844 34.4736 30.0875C31.6594 31.8181 28.8526 33.5635 26.0312 35.2831C23.5515 36.7965 21.0573 38.2878 18.574 39.7938C18.3632 39.9227 18.1486 39.9706 17.9014 39.9926C17.2688 40.0516 16.7416 39.8527 16.1962 39.5213C11.935 36.9217 7.65197 34.3515 3.38713 31.7629C2.46362 31.2032 1.56557 30.5993 0.663884 30.0028C0.583896 29.9512 0.514821 29.815 0.511185 29.7156C0.503913 27.2227 0.503906 24.7261 0.503906 22.2333C0.503906 21.3606 0.503906 20.4879 0.503906 19.6189ZM4.26336 10.7521C4.38335 10.8294 4.44516 10.8736 4.51424 10.9104C8.77544 13.2339 13.0366 15.5537 17.2942 17.8846C17.516 18.0061 17.6942 18.0098 17.916 17.8846C19.7121 16.8977 21.5118 15.9256 23.3079 14.9462C25.7076 13.6353 28.1072 12.3244 30.5069 11.0099C30.6196 10.9473 30.7287 10.8699 30.8923 10.7631C30.645 10.5938 30.4596 10.4502 30.256 10.3286C27.4419 8.64219 24.6277 6.95941 21.8172 5.27295C20.5338 4.50337 19.2539 3.73378 17.9705 2.96052C17.7451 2.82427 17.5596 2.74695 17.2797 2.91633C13.1566 5.40551 9.02632 7.87629 4.89601 10.3544C4.69967 10.4723 4.50697 10.5974 4.26336 10.7484V10.7521ZM3.31078 13.5727C3.31078 13.7016 3.31078 13.7826 3.31078 13.8599C3.31078 18.5253 3.31078 23.1943 3.31078 27.8597C3.31078 28.0512 3.37258 28.169 3.5362 28.2684C7.66651 30.765 11.7896 33.2615 15.9199 35.7618C15.9889 35.8023 16.0653 35.8354 16.1671 35.887C16.1889 35.6329 16.2216 35.423 16.218 35.2168C16.2107 34.6203 16.178 34.0238 16.178 33.4272C16.1853 32.0317 16.2144 30.6361 16.218 29.2369C16.2253 26.5562 16.218 23.8755 16.2217 21.1949C16.2217 20.9555 16.1417 20.7935 15.9235 20.6683C11.7968 18.3412 7.67743 16.0103 3.55438 13.6795C3.49257 13.6463 3.42713 13.6206 3.31442 13.569L3.31078 13.5727ZM31.8412 13.5727C31.6885 13.6574 31.5904 13.7052 31.4958 13.7605C27.4055 16.0803 23.3188 18.4038 19.2249 20.7199C19.0467 20.8193 18.9849 20.9445 18.9849 21.1433C18.9885 25.956 18.9849 30.765 18.9849 35.5777V35.9091C19.403 35.6623 19.7593 35.4561 20.112 35.2463C21.4064 34.4656 22.7007 33.685 23.9951 32.9044C26.482 31.402 28.9653 29.896 31.4558 28.4084C31.7358 28.2427 31.8267 28.0622 31.8267 27.7382C31.8303 23.6767 31.8521 19.6189 31.8667 15.5574C31.8667 14.9167 31.8485 14.2723 31.8376 13.5764L31.8412 13.5727Z" fill="#383737"/>
</svg>
