<svg width="12" height="12" viewBox="0 0 12 12" fill="none" xmlns="http://www.w3.org/2000/svg">
<path d="M11.0825 2.24378C11.1721 2.15734 11.2435 2.05392 11.2927 1.93957C11.3419 1.82521 11.3678 1.70221 11.369 1.57773C11.3701 1.45325 11.3465 1.32979 11.2994 1.21455C11.2523 1.09931 11.1827 0.994606 11.0947 0.90654C11.0068 0.818475 10.9021 0.748813 10.7869 0.701621C10.6717 0.654428 10.5483 0.63065 10.4238 0.631672C10.2993 0.632695 10.1763 0.658498 10.0619 0.707577C9.9475 0.756656 9.84402 0.828027 9.7575 0.917526L6 4.67378L2.24375 0.917526C2.15792 0.825418 2.05442 0.75154 1.93942 0.7003C1.82442 0.64906 1.70028 0.621508 1.5744 0.619287C1.44852 0.617066 1.32349 0.640222 1.20675 0.687373C1.09001 0.734524 0.983973 0.804705 0.894949 0.893728C0.805926 0.982752 0.735745 1.08879 0.688594 1.20553C0.641442 1.32226 0.618286 1.4473 0.620507 1.57318C0.622728 1.69906 0.650281 1.8232 0.701521 1.9382C0.752761 2.0532 0.826638 2.1567 0.918747 2.24253L4.6725 6.00003L0.916247 9.75628C0.750647 9.934 0.660493 10.1691 0.664778 10.4119C0.669063 10.6548 0.767454 10.8865 0.93922 11.0583C1.11099 11.2301 1.34272 11.3285 1.58559 11.3327C1.82847 11.337 2.06353 11.2469 2.24125 11.0813L6 7.32503L9.75625 11.0825C9.93397 11.2481 10.169 11.3383 10.4119 11.334C10.6548 11.3297 10.8865 11.2313 11.0583 11.0596C11.23 10.8878 11.3284 10.6561 11.3327 10.4132C11.337 10.1703 11.2468 9.93524 11.0812 9.75753L7.3275 6.00003L11.0825 2.24378Z" fill="black"/>
</svg>
