<svg width="28" height="28" viewBox="0 0 28 28" fill="none" xmlns="http://www.w3.org/2000/svg">
<path d="M4.8125 24.5C4.00027 24.5 3.22132 24.1773 2.64699 23.603C2.07266 23.0287 1.75 22.2497 1.75 21.4375V17.0625C1.75 16.7144 1.88828 16.3806 2.13442 16.1344C2.38056 15.8883 2.7144 15.75 3.0625 15.75C3.4106 15.75 3.74444 15.8883 3.99058 16.1344C4.23672 16.3806 4.375 16.7144 4.375 17.0625V21.4375C4.375 21.679 4.571 21.875 4.8125 21.875H23.1875C23.3035 21.875 23.4148 21.8289 23.4969 21.7469C23.5789 21.6648 23.625 21.5535 23.625 21.4375V17.0625C23.625 16.7144 23.7633 16.3806 24.0094 16.1344C24.2556 15.8883 24.5894 15.75 24.9375 15.75C25.2856 15.75 25.6194 15.8883 25.8656 16.1344C26.1117 16.3806 26.25 16.7144 26.25 17.0625V21.4375C26.25 22.2497 25.9273 23.0287 25.353 23.603C24.7787 24.1773 23.9997 24.5 23.1875 24.5H4.8125Z" fill="white"/>
<path d="M20.6152 8.25957C20.737 8.38137 20.8336 8.52597 20.8995 8.68511C20.9654 8.84425 20.9993 9.01482 20.9993 9.18707C20.9993 9.35932 20.9654 9.52989 20.8995 9.68903C20.8336 9.84817 20.737 9.99277 20.6152 10.1146C20.4934 10.2364 20.3488 10.333 20.1896 10.3989C20.0305 10.4648 19.8599 10.4988 19.6877 10.4988C19.5154 10.4988 19.3448 10.4648 19.1857 10.3989C19.0266 10.333 18.882 10.2364 18.7602 10.1146L15.3127 6.66882V16.6246C15.3127 16.9727 15.1744 17.3065 14.9282 17.5526C14.6821 17.7988 14.3483 17.9371 14.0002 17.9371C13.6521 17.9371 13.3182 17.7988 13.0721 17.5526C12.8259 17.3065 12.6877 16.9727 12.6877 16.6246V6.66882L9.24016 10.1146C9.11836 10.2364 8.97376 10.333 8.81462 10.3989C8.65548 10.4648 8.48491 10.4988 8.31266 10.4988C8.14041 10.4988 7.96984 10.4648 7.8107 10.3989C7.65156 10.333 7.50696 10.2364 7.38516 10.1146C7.26336 9.99277 7.16674 9.84817 7.10082 9.68903C7.0349 9.52989 7.00098 9.35932 7.00098 9.18707C7.00098 9.01482 7.0349 8.84425 7.10082 8.68511C7.16674 8.52597 7.26336 8.38137 7.38516 8.25957L13.0727 2.57207C13.1944 2.45016 13.339 2.35344 13.4981 2.28745C13.6573 2.22147 13.8279 2.1875 14.0002 2.1875C14.1724 2.1875 14.343 2.22147 14.5022 2.28745C14.6613 2.35344 14.8059 2.45016 14.9277 2.57207L20.6152 8.25957Z" fill="white"/>
</svg>
