<svg width="26" height="26" viewBox="0 0 26 26" fill="none" xmlns="http://www.w3.org/2000/svg">
<path d="M14.285 0.5C15.6912 0.50375 16.405 0.51125 17.0212 0.52875L17.2637 0.5375C17.5437 0.5475 17.82 0.56 18.1537 0.575C19.4837 0.6375 20.3912 0.8475 21.1875 1.15625C22.0125 1.47375 22.7075 1.90375 23.4025 2.5975C24.0381 3.22237 24.5299 3.97824 24.8437 4.8125C25.1525 5.60875 25.3625 6.51625 25.425 7.8475C25.44 8.18 25.4525 8.45625 25.4625 8.7375L25.47 8.98C25.4887 9.595 25.4962 10.3088 25.4987 11.715L25.5 12.6475V14.285C25.5031 15.1968 25.4935 16.1085 25.4712 17.02L25.4637 17.2625C25.4537 17.5437 25.4412 17.82 25.4262 18.1525C25.3637 19.4837 25.1512 20.39 24.8437 21.1875C24.5308 22.0222 24.0389 22.7783 23.4025 23.4025C22.7774 24.0379 22.0216 24.5297 21.1875 24.8438C20.3912 25.1525 19.4837 25.3625 18.1537 25.425C17.8571 25.439 17.5605 25.4515 17.2637 25.4625L17.0212 25.47C16.405 25.4875 15.6912 25.4963 14.285 25.4988L13.3525 25.5H11.7162C10.8041 25.5031 9.89189 25.4936 8.97999 25.4712L8.73749 25.4638C8.44075 25.4525 8.14408 25.4396 7.84749 25.425C6.51749 25.3625 5.60999 25.1525 4.81249 24.8438C3.97833 24.5305 3.22276 24.0386 2.59874 23.4025C1.96255 22.7779 1.47027 22.0219 1.15624 21.1875C0.847489 20.3912 0.637489 19.4837 0.574989 18.1525C0.561062 17.8559 0.548562 17.5592 0.537489 17.2625L0.531239 17.02C0.508204 16.1085 0.497786 15.1968 0.499989 14.285V11.715C0.4965 10.8033 0.505668 9.8915 0.527489 8.98L0.536239 8.7375C0.546239 8.45625 0.558739 8.18 0.573739 7.8475C0.636239 6.51625 0.846239 5.61 1.15499 4.8125C1.46888 3.97738 1.96214 3.22128 2.59999 2.5975C3.22385 1.96184 3.97892 1.46998 4.81249 1.15625C5.60999 0.8475 6.51624 0.6375 7.84749 0.575C8.17999 0.56 8.45749 0.5475 8.73749 0.5375L8.97999 0.53C9.89148 0.507791 10.8032 0.498207 11.715 0.50125L14.285 0.5ZM13 6.75C11.3424 6.75 9.75267 7.40848 8.58057 8.58058C7.40847 9.75268 6.74999 11.3424 6.74999 13C6.74999 14.6576 7.40847 16.2473 8.58057 17.4194C9.75267 18.5915 11.3424 19.25 13 19.25C14.6576 19.25 16.2473 18.5915 17.4194 17.4194C18.5915 16.2473 19.25 14.6576 19.25 13C19.25 11.3424 18.5915 9.75268 17.4194 8.58058C16.2473 7.40848 14.6576 6.75 13 6.75ZM13 9.25C13.4924 9.24992 13.9801 9.34683 14.4351 9.53521C14.8901 9.72359 15.3035 9.99975 15.6518 10.3479C16.0001 10.6961 16.2764 11.1094 16.4649 11.5644C16.6535 12.0193 16.7505 12.5069 16.7506 12.9994C16.7507 13.4918 16.6538 13.9795 16.4654 14.4345C16.277 14.8895 16.0009 15.3029 15.6527 15.6512C15.3045 15.9995 14.8912 16.2758 14.4363 16.4643C13.9813 16.6528 13.4937 16.7499 13.0012 16.75C12.0067 16.75 11.0528 16.3549 10.3496 15.6517C9.64633 14.9484 9.25124 13.9946 9.25124 13C9.25124 12.0054 9.64633 11.0516 10.3496 10.3483C11.0528 9.64509 12.0067 9.25 13.0012 9.25M19.5637 4.875C19.1493 4.875 18.7519 5.03962 18.4589 5.33265C18.1659 5.62567 18.0012 6.0231 18.0012 6.4375C18.0012 6.8519 18.1659 7.24933 18.4589 7.54235C18.7519 7.83538 19.1493 8 19.5637 8C19.9781 8 20.3756 7.83538 20.6686 7.54235C20.9616 7.24933 21.1262 6.8519 21.1262 6.4375C21.1262 6.0231 20.9616 5.62567 20.6686 5.33265C20.3756 5.03962 19.9781 4.875 19.5637 4.875Z" fill="#252525"/>
</svg>
