<svg width="34" height="26" viewBox="0 0 34 26" fill="none" xmlns="http://www.w3.org/2000/svg">
<path d="M7.62501 25.5C5.7119 25.5003 3.87531 24.7486 2.51128 23.4072C1.14725 22.0658 0.365053 20.242 0.333349 18.3292C0.145849 16.5271 0.17293 13.8687 1.39168 10.8C2.63751 7.6625 5.06668 4.24167 9.50001 0.916666C9.71888 0.752513 9.96794 0.633075 10.233 0.565176C10.498 0.497278 10.7738 0.482242 11.0446 0.520935C11.5916 0.599075 12.0852 0.891302 12.4167 1.33333C12.7482 1.77536 12.8905 2.33098 12.8124 2.87796C12.7343 3.42494 12.442 3.91848 12 4.25C8.74168 6.69375 6.87502 9.06875 5.80627 11.1458C6.80827 10.8885 7.85356 10.8474 8.87269 11.0251C9.89183 11.2028 10.8615 11.5954 11.7172 12.1767C12.573 12.758 13.2952 13.5147 13.836 14.3967C14.3768 15.2786 14.7237 16.2655 14.8538 17.2918C14.9838 18.3181 14.894 19.3603 14.5902 20.3492C14.2865 21.3382 13.7758 22.2511 13.0921 23.0275C12.4084 23.8039 11.5673 24.4258 10.6247 24.8521C9.68205 25.2784 8.65953 25.4993 7.62501 25.5ZM26.375 25.5C24.4619 25.5003 22.6253 24.7486 21.2613 23.4072C19.8973 22.0658 19.1151 20.242 19.0833 18.3292C18.8958 16.5271 18.9229 13.8687 20.1417 10.8C21.3854 7.6625 23.8167 4.24167 28.25 0.916666C28.4689 0.752513 28.7179 0.633075 28.983 0.565176C29.248 0.497278 29.5238 0.482242 29.7946 0.520935C30.3416 0.599075 30.8352 0.891302 31.1667 1.33333C31.4982 1.77536 31.6405 2.33098 31.5624 2.87796C31.4843 3.42494 31.192 3.91848 30.75 4.25C27.4917 6.69375 25.625 9.06875 24.5563 11.1458C25.5583 10.8885 26.6036 10.8474 27.6227 11.0251C28.6418 11.2028 29.6115 11.5954 30.4672 12.1767C31.323 12.758 32.0452 13.5147 32.586 14.3967C33.1268 15.2786 33.4737 16.2655 33.6038 17.2918C33.7338 18.3181 33.644 19.3603 33.3402 20.3492C33.0365 21.3382 32.5258 22.2511 31.8421 23.0275C31.1584 23.8039 30.3173 24.4258 29.3747 24.8521C28.4321 25.2784 27.4095 25.4993 26.375 25.5Z" fill="#C7DEEC"/>
</svg>
