<svg width="75" height="75" viewBox="0 0 75 75" fill="none" xmlns="http://www.w3.org/2000/svg">
<path d="M32.8125 50.1891L21.0938 38.468L24.4055 35.1562L32.8125 43.5609L50.5898 25.7812L53.9062 29.0977L32.8125 50.1891Z" fill="#3CA5E9"/>
<path d="M37.5 4.6875C31.0103 4.6875 24.6664 6.61192 19.2704 10.2174C13.8744 13.8229 9.66872 18.9475 7.18522 24.9432C4.70172 30.9389 4.05192 37.5364 5.318 43.9014C6.58408 50.2664 9.70916 56.113 14.2981 60.7019C18.887 65.2909 24.7336 68.4159 31.0986 69.682C37.4636 70.9481 44.0611 70.2983 50.0568 67.8148C56.0525 65.3313 61.1771 61.1256 64.7826 55.7296C68.3881 50.3337 70.3125 43.9897 70.3125 37.5C70.3125 28.7976 66.8555 20.4516 60.702 14.2981C54.5484 8.14452 46.2024 4.6875 37.5 4.6875ZM37.5 65.625C31.9374 65.625 26.4997 63.9755 21.8746 60.8851C17.2495 57.7947 13.6446 53.4021 11.5159 48.263C9.38719 43.1238 8.83022 37.4688 9.91543 32.0131C11.0006 26.5574 13.6793 21.546 17.6126 17.6126C21.546 13.6793 26.5574 11.0006 32.0131 9.91541C37.4688 8.8302 43.1238 9.38717 48.263 11.5159C53.4022 13.6446 57.7947 17.2495 60.8851 21.8746C63.9755 26.4997 65.625 31.9374 65.625 37.5C65.625 44.9592 62.6618 52.1129 57.3874 57.3874C52.1129 62.6618 44.9592 65.625 37.5 65.625Z" fill="#3CA5E9"/>
</svg>
