<svg width="28" height="28" viewBox="0 0 28 28" fill="none" xmlns="http://www.w3.org/2000/svg">
<path d="M25.1563 6.95002C21.2376 0.875018 13.2126 -0.924982 7.00634 2.84377C0.950094 6.61252 -0.999906 14.825 2.91884 20.8813L3.23759 21.3688L1.92509 26.2813L6.83759 24.9688L7.32509 25.2875C9.44384 26.4313 11.7501 27.0875 14.0376 27.0875C16.4938 27.0875 18.9501 26.4313 21.0688 25.1188C27.1251 21.1813 28.9251 13.1375 25.1563 6.91252V6.95002ZM21.7251 19.5875C21.0688 20.5625 20.2438 21.2188 19.1001 21.3875C18.4438 21.3875 17.6188 21.7063 14.3563 20.4125C11.5813 19.1 9.27509 16.9625 7.64384 14.5063C6.66884 13.3625 6.16259 11.8813 6.01259 10.4C6.01259 9.08752 6.50009 7.94377 7.32509 7.11877C7.64384 6.80002 7.98134 6.63127 8.30009 6.63127H9.12509C9.44384 6.63127 9.78134 6.63127 9.95009 7.28752C10.2688 8.11252 11.0938 10.0813 11.0938 10.25C11.2626 10.4188 11.1876 11.675 10.4376 12.3875C10.0251 12.8563 9.95009 12.875 10.1188 13.2125C10.7751 14.1875 11.6001 15.1813 12.4063 16.0063C13.3813 16.8313 14.3751 17.4875 15.5188 17.975C15.8376 18.1438 16.1751 18.1438 16.3438 17.8063C16.5126 17.4875 17.3188 16.6625 17.6563 16.325C17.9751 16.0063 18.1438 16.0063 18.4813 16.1563L21.1063 17.4688C21.4251 17.6375 21.7626 17.7875 21.9313 17.9563C22.1001 18.4438 22.1001 19.1 21.7626 19.5875H21.7251Z" fill="#252525"/>
</svg>
