<svg width="26" height="20" viewBox="0 0 26 20" fill="none" xmlns="http://www.w3.org/2000/svg">
<path fill-rule="evenodd" clip-rule="evenodd" d="M13 0C14.0688 0 15.165 0.0275001 16.2275 0.0725001L17.4825 0.1325L18.6838 0.20375L19.8088 0.28L20.8362 0.36C21.9513 0.445347 23.0006 0.921184 23.7994 1.7038C24.5983 2.48642 25.0955 3.52567 25.2038 4.63875L25.2537 5.17L25.3475 6.3075C25.435 7.48625 25.5 8.77125 25.5 10C25.5 11.2288 25.435 12.5138 25.3475 13.6925L25.2537 14.83C25.2375 15.0125 25.2213 15.1887 25.2038 15.3612C25.0955 16.4745 24.598 17.5139 23.7989 18.2966C22.9998 19.0792 21.9503 19.5549 20.835 19.64L19.81 19.7188L18.685 19.7962L17.4825 19.8675L16.2275 19.9275C15.1523 19.9742 14.0762 19.9984 13 20C11.9238 19.9984 10.8477 19.9742 9.7725 19.9275L8.5175 19.8675L7.31625 19.7962L6.19125 19.7188L5.16375 19.64C4.04869 19.5547 2.99944 19.0788 2.20059 18.2962C1.40174 17.5136 0.904468 16.4743 0.79625 15.3612L0.74625 14.83L0.6525 13.6925C0.556922 12.4639 0.506055 11.2323 0.5 10C0.5 8.77125 0.565 7.48625 0.6525 6.3075L0.74625 5.17C0.7625 4.9875 0.77875 4.81125 0.79625 4.63875C0.904426 3.52587 1.40152 2.48677 2.20011 1.70418C2.99871 0.921589 4.04766 0.445628 5.1625 0.36L6.18875 0.28L7.31375 0.20375L8.51625 0.1325L9.77125 0.0725001C10.8469 0.0257912 11.9234 0.00161911 13 0ZM10.5 6.96875V13.0312C10.5 13.6088 11.125 13.9688 11.625 13.6812L16.875 10.65C16.9892 10.5842 17.0841 10.4895 17.1501 10.3754C17.2161 10.2613 17.2508 10.1318 17.2508 10C17.2508 9.86818 17.2161 9.7387 17.1501 9.62458C17.0841 9.51047 16.9892 9.41576 16.875 9.35L11.625 6.32C11.511 6.25415 11.3816 6.2195 11.2499 6.21952C11.1182 6.21954 10.9888 6.25424 10.8748 6.32012C10.7608 6.386 10.6661 6.48075 10.6003 6.59483C10.5345 6.70891 10.4999 6.83831 10.5 6.97V6.96875Z" fill="#252525"/>
</svg>
