<svg width="177" height="40" viewBox="0 0 177 40" fill="none" xmlns="http://www.w3.org/2000/svg">
<g clip-path="url(#clip0_2001_602)">
<path d="M112.504 19.6189C112.504 16.2607 112.504 12.9025 112.504 9.54433C112.504 9.39336 112.558 9.31235 112.686 9.24239C117.769 6.44022 122.852 3.63436 127.934 0.83219C128.367 0.592845 128.803 0.353501 129.236 0.110474C129.494 -0.0331327 129.752 -0.0368149 130.007 0.10311C135.501 3.13726 140.994 6.17141 146.492 9.20189C146.663 9.29762 146.724 9.41545 146.724 9.60693C146.724 16.2902 146.724 22.9771 146.724 29.6603C146.724 29.8665 146.637 29.9844 146.474 30.0875C143.659 31.8181 140.853 33.5635 138.031 35.2831C135.552 36.7965 133.057 38.2878 130.574 39.7938C130.363 39.9227 130.149 39.9706 129.901 39.9926C129.269 40.0516 128.742 39.8527 128.196 39.5213C123.935 36.9217 119.652 34.3515 115.387 31.7629C114.464 31.2032 113.566 30.5993 112.664 30.0028C112.584 29.9512 112.515 29.815 112.511 29.7156C112.504 27.2227 112.504 24.7261 112.504 22.2333C112.504 21.3606 112.504 20.4879 112.504 19.6189ZM116.263 10.7521C116.383 10.8294 116.445 10.8736 116.514 10.9104C120.775 13.2339 125.037 15.5537 129.294 17.8846C129.516 18.0061 129.694 18.0098 129.916 17.8846C131.712 16.8977 133.512 15.9256 135.308 14.9462C137.708 13.6353 140.107 12.3244 142.507 11.0099C142.62 10.9473 142.729 10.8699 142.892 10.7631C142.645 10.5938 142.46 10.4502 142.256 10.3286C139.442 8.64219 136.628 6.95941 133.817 5.27295C132.534 4.50337 131.254 3.73378 129.97 2.96052C129.745 2.82427 129.56 2.74695 129.28 2.91633C125.157 5.40551 121.026 7.87629 116.896 10.3544C116.7 10.4723 116.507 10.5974 116.263 10.7484V10.7521ZM115.311 13.5727C115.311 13.7016 115.311 13.7826 115.311 13.8599C115.311 18.5253 115.311 23.1943 115.311 27.8597C115.311 28.0512 115.373 28.169 115.536 28.2684C119.667 30.765 123.79 33.2615 127.92 35.7618C127.989 35.8023 128.065 35.8354 128.167 35.887C128.189 35.6329 128.222 35.423 128.218 35.2168C128.211 34.6203 128.178 34.0238 128.178 33.4272C128.185 32.0317 128.214 30.6361 128.218 29.2369C128.225 26.5562 128.218 23.8755 128.222 21.1949C128.222 20.9555 128.142 20.7935 127.924 20.6683C123.797 18.3412 119.677 16.0103 115.554 13.6795C115.493 13.6463 115.427 13.6206 115.314 13.569L115.311 13.5727ZM143.841 13.5727C143.689 13.6574 143.59 13.7052 143.496 13.7605C139.405 16.0803 135.319 18.4038 131.225 20.7199C131.047 20.8193 130.985 20.9445 130.985 21.1433C130.989 25.956 130.985 30.765 130.985 35.5777V35.9091C131.403 35.6623 131.759 35.4561 132.112 35.2463C133.406 34.4656 134.701 33.685 135.995 32.9044C138.482 31.402 140.965 29.896 143.456 28.4084C143.736 28.2427 143.827 28.0622 143.827 27.7382C143.83 23.6767 143.852 19.6189 143.867 15.5574C143.867 14.9167 143.848 14.2723 143.838 13.5764L143.841 13.5727Z" fill="#383737"/>
<path d="M82.9954 6.00572C83.1335 6.00572 83.2535 6.00572 83.3735 6.00572C87.0675 6.00572 90.7615 6.00203 94.4555 6.01308C95.9935 6.01676 97.5205 6.14932 98.9858 6.65747C101.065 7.37919 102.629 8.71215 103.487 10.7852C104.512 13.256 103.792 16.0103 101.687 17.7778C101.247 18.146 100.756 18.4516 100.269 18.7978C100.335 18.8235 100.418 18.8567 100.502 18.8898C102.109 19.4863 103.476 20.4069 104.4 21.9056C105.076 23.0029 105.319 24.2143 105.298 25.492C105.232 29.0712 103.04 31.8586 99.5312 32.816C97.9859 33.2394 96.408 33.3904 94.8155 33.3978C90.9542 33.4125 87.093 33.4051 83.2317 33.4088C83.159 33.4088 83.0899 33.4088 82.999 33.4088V6.00572H82.9954ZM86.7984 20.6241C86.7984 20.7457 86.7984 20.8377 86.7984 20.9335C86.7984 22.1044 86.7984 23.2753 86.7984 24.4463C86.7984 26.2616 86.7948 28.0807 86.7912 29.896C86.7912 30.069 86.8021 30.1795 87.0275 30.1758C89.8198 30.1611 92.6122 30.1758 95.4045 30.1464C96.5061 30.1353 97.5969 29.9917 98.6331 29.5535C101.153 28.4894 102.193 25.4736 100.826 23.1354C100.197 22.0602 99.2258 21.4232 98.0696 21.0586C96.9861 20.7162 95.859 20.6315 94.7355 20.6241C92.1686 20.5984 89.598 20.6094 87.0311 20.6094C86.9693 20.6094 86.9075 20.6168 86.8057 20.6241H86.7984ZM86.7948 17.6857C86.8966 17.6894 86.9766 17.6968 87.053 17.6968C89.2454 17.6968 91.4414 17.7152 93.6338 17.6894C94.5791 17.6784 95.5317 17.6047 96.4734 17.509C97.2697 17.4243 97.9968 17.1039 98.6586 16.6473C99.8657 15.8188 100.226 14.6037 100.146 13.2081C100.047 11.4517 99.0076 10.1188 97.3351 9.64375C96.8552 9.50751 96.3534 9.41546 95.8553 9.38232C94.7028 9.30867 93.5466 9.2608 92.3904 9.24607C90.6124 9.22398 88.8345 9.24607 87.053 9.23871C86.8566 9.23871 86.7403 9.30131 86.7112 9.48174C86.6857 9.64375 86.6894 9.81314 86.693 9.97884C86.7148 12.3207 86.7366 14.6589 86.7621 17.0008C86.7621 17.2255 86.7803 17.4464 86.7912 17.6857H86.7948Z" fill="#383737"/>
<path d="M72.7604 19.3022C72.7204 21.9166 72.2768 24.0008 71.3497 25.9855C70.5171 27.7603 69.3718 29.2848 67.8847 30.533C66.3104 31.855 64.5143 32.7571 62.4891 33.1621C61.3439 33.3904 60.1986 33.4494 59.0387 33.3352C56.8936 33.1253 54.963 32.3631 53.2068 31.1038C51.5525 29.9181 50.2727 28.401 49.3056 26.6188C48.5312 25.1901 48.0258 23.651 47.7822 22.0308C47.604 20.8451 47.564 19.6557 47.6586 18.459C47.8149 16.4743 48.3639 14.6037 49.2838 12.8584C49.9273 11.6395 50.749 10.5386 51.738 9.56645C52.7742 8.54647 53.9376 7.72165 55.2429 7.11409C56.4791 6.53966 57.788 6.19353 59.1551 6.07938C60.0531 6.00574 60.9439 6.02047 61.8274 6.14198C62.7582 6.27086 63.6672 6.52125 64.5434 6.88211C66.0632 7.50809 67.4012 8.39918 68.5828 9.54804C69.9172 10.8515 70.9207 12.3797 71.6406 14.0993C72.0514 15.0824 72.3677 16.1024 72.5132 17.1629C72.6295 18.0172 72.7059 18.8751 72.7531 19.3096L72.7604 19.3022ZM51.2762 19.965C51.2944 20.904 51.4471 22.0823 51.8107 23.2349C52.4942 25.4111 53.6577 27.2522 55.4611 28.6404C57.0208 29.8408 58.7733 30.441 60.7512 30.3011C61.8492 30.2237 62.8782 29.896 63.838 29.3584C65.6305 28.3605 66.9249 26.8729 67.8411 25.0502C68.5501 23.6436 68.95 22.1412 69.0555 20.5542C69.1464 19.1697 69.0155 17.8146 68.6483 16.4817C68.3029 15.226 67.7647 14.0661 67.023 12.9983C66.4013 12.0998 65.656 11.3155 64.7834 10.6638C64.0198 10.0967 63.1872 9.6585 62.2746 9.3897C60.3949 8.83737 58.577 9.02516 56.8354 9.89785C55.2975 10.6674 54.0976 11.8384 53.1559 13.2744C51.887 15.2187 51.2762 17.3728 51.2726 19.9614L51.2762 19.965Z" fill="#383737"/>
<path d="M21.3023 30.301C21.4877 30.301 21.6041 30.301 21.724 30.301C27.1814 30.301 32.6388 30.301 38.0962 30.301C38.4707 30.301 38.4489 30.2458 38.4489 30.6692C38.4489 31.4609 38.4489 32.2526 38.4489 33.0443C38.4489 33.2824 38.335 33.4014 38.1071 33.4014C34.2713 33.4014 30.4319 33.4014 26.5961 33.4014C23.3747 33.4014 20.1497 33.4014 16.9284 33.4014C16.8266 33.4014 16.7248 33.4014 16.5975 33.4014C16.5939 33.302 16.5866 33.2247 16.5866 33.1474C16.5866 32.3226 16.5793 31.5014 16.5902 30.6766C16.5902 30.5551 16.6484 30.4078 16.7248 30.3121C21.7859 24.137 26.8542 17.9656 31.9226 11.7942C32.4643 11.135 33.0061 10.4796 33.5442 9.82049C33.606 9.74316 33.6641 9.66215 33.7696 9.52223H16.5939V6.42548H38.4235C38.4307 6.51017 38.4416 6.59854 38.4416 6.68323C38.4344 7.497 38.4344 8.31446 38.4126 9.12823C38.4089 9.28288 38.3398 9.46331 38.2453 9.58114C35.4094 13.0498 32.5625 16.5148 29.7193 19.9797C26.9706 23.3342 24.2255 26.6961 21.4804 30.0506C21.4295 30.1095 21.3859 30.1758 21.3023 30.29V30.301Z" fill="#383737"/>
<path d="M153.211 6.02041C153.316 6.01304 153.378 6.00568 153.44 6.00568C154.749 6.00936 156.058 6.01672 157.366 6.01672C157.519 6.01672 157.614 6.07196 157.701 6.19347C159.977 9.39701 162.26 12.6005 164.54 15.8041C164.609 15.8998 164.682 15.9919 164.776 16.1171C164.845 16.0287 164.904 15.9661 164.951 15.8998C167.176 12.7662 169.408 9.63635 171.619 6.49173C171.873 6.13087 172.128 5.9799 172.568 5.99463C173.706 6.03145 174.848 6.01672 175.989 6.02041C176.069 6.02041 176.146 6.02041 176.28 6.02041C176.211 6.12719 176.171 6.20083 176.12 6.26711C173.117 10.4869 170.117 14.7068 167.111 18.9229C166.965 19.1254 166.958 19.2506 167.107 19.4605C170.346 24.0007 173.579 28.5519 176.815 33.0995C176.873 33.1805 176.927 33.2689 177.004 33.383C176.876 33.3904 176.793 33.3977 176.709 33.3977C175.455 33.4014 174.204 33.4014 172.95 33.4162C172.757 33.4162 172.648 33.3462 172.542 33.1952C170.048 29.6713 167.55 26.1511 165.053 22.6272C164.976 22.5168 164.889 22.4137 164.784 22.2811C164.704 22.3768 164.642 22.4431 164.587 22.5168C162.06 26.0664 159.533 29.6161 157.014 33.1731C156.894 33.3425 156.767 33.4088 156.563 33.4051C155.301 33.3977 154.043 33.4051 152.782 33.4125C152.698 33.4125 152.611 33.4125 152.469 33.4125C152.753 33.0111 153 32.6613 153.247 32.3078C156.305 27.9996 159.363 23.6914 162.424 19.3906C162.548 19.2175 162.504 19.1181 162.402 18.9745C159.373 14.7178 156.345 10.4575 153.32 6.19715C153.287 6.15297 153.262 6.10141 153.214 6.02041H153.211Z" fill="#383737"/>
<path d="M0 6.41809C1.05076 6.41809 2.06879 6.41809 3.09046 6.41809C3.78127 6.41809 3.77764 6.41809 3.77764 7.11035C3.774 11.5658 3.76673 16.0213 3.76673 20.4768C3.76673 24.6746 3.774 28.8723 3.77764 33.07C3.77764 33.1658 3.77764 33.2615 3.77764 33.383H0V6.41809Z" fill="#383737"/>
</g>
<defs>
<clipPath id="clip0_2001_602">
<rect width="177" height="40" fill="white"/>
</clipPath>
</defs>
</svg>
